# AST/ASF file generated using VICON BodyLanguage
# -----------------------------------------------
:version 1.10
:name VICON
:units
  mass 1.0
  length 0.45
  angle deg
:documentation
   .ast/.asf automatically generated from VICON data using
   VICON BodyBuilder and BodyLanguage model FoxedUp or BRILLIANT.MOD
:root
   order TX TY TZ RX RY RZ
   axis XYZ
   position 0 0 0  
   orientation 0 0 0 
:bonedata
  begin
     id 1 
     name lhipjoint
     direction 0.682418 -0.694059 0.22932 
     length 2.25561 
     axis 0 0 0  XYZ
  end
  begin
     id 2 
     name lfemur
     direction 0.34202 -0.939693 0  
     length 6.96448  
     axis 0 0 20  XYZ
    dof rx ry rz
    limits (-160.0 20.0)
           (-70.0 70.0)
           (-60.0 70.0)
  end
  begin
     id 3 
     name ltibia
     direction 0.34202 -0.939693 0   
     length 6.88553   
     axis 0 0 20   XYZ
    dof rx
    limits (-10.0 170.0)
  end
  begin
     id 4 
     name lfoot
     direction 0.0723587 -0.198804 0.977364   
     length 1.88518   
     axis -90 7.62852e-016 20   XYZ
    dof rx rz
    limits (-45.0 90.0)
           (-70.0 20.0)
  end
  begin
     id 5 
     name ltoes
     direction 1.53558e-011 -4.21962e-011 1   
     length 0.952124   
     axis -90 7.62852e-016 20   XYZ
    dof rx
    limits (-90.0 20.0)
  end
  begin
     id 6 
     name rhipjoint
     direction -0.657603 -0.71533 0.236348   
     length 2.18854  
     axis 0 0 0  XYZ 
  end
  begin
     id 7 
     name rfemur
     direction -0.34202 -0.939693 0   
     length 6.86686   
     axis 0 0 -20   XYZ
    dof rx ry rz
    limits (-160.0 20.0)
           (-70.0 70.0)
           (-70.0 60.0)
  end
  begin
     id 8 
     name rtibia
     direction -0.34202 -0.939693 0   
     length 6.59503   
     axis 0 0 -20   XYZ
    dof rx
    limits (-10.0 170.0)
 end
 begin
     id 9 
     name rfoot
     direction -0.101977 -0.280179 0.954516   
     length 1.93723  
     axis -90 -7.62852e-016 -20   XYZ
    dof rx rz
    limits (-45.0 90.0)
           (-20.0 70.0)
  end
  begin
     id 10 
     name rtoes
     direction -1.53564e-011 -4.21897e-011 1   
     length 0.970315   
     axis -90 -7.62852e-016 -20   XYZ
    dof rx
    limits (-90.0 20.0)
  end
  begin
     id 11 
     name lowerback
     direction -0.0339559 0.999421 -0.00235966   
     length 1.88543   
     axis 0 0 0   XYZ
    dof rx ry rz
    limits (-20.0 45.0)
           (-30.0 30.0)
           (-30.0 30.0)
  end
  begin
     id 12 
     name upperback
     direction 0.00401003 0.999739 0.0224689   
     length 1.8856   
     axis 0 0 0   XYZ
    dof rx ry rz
    limits (-20.0 45.0)
           (-30.0 30.0)
           (-30.0 30.0)
  end
  begin
     id 13 
     name thorax
     direction 0.0198619 0.999546 0.0226536   
     length 1.88352   
     axis 0 0 0   XYZ
    dof rx ry rz
    limits (-20.0 45.0)
           (-30.0 30.0)
           (-30.0 30.0)
  end
  begin
     id 14 
     name lowerneck
     direction -0.0461848 0.998632 0.0245198   
     length 1.34895   
     axis 0 0 0   XYZ
    dof rx ry rz
    limits (-20.0 45.0)
           (-30.0 30.0)
           (-30.0 30.0)
  end
  begin
     id 15 
     name upperneck
     direction -0.0180627 0.994724 -0.100984   
     length 1.35214   
     axis 0 0 0   XYZ
    dof rx ry rz
    limits (-20.0 45.0)
           (-30.0 30.0)
           (-30.0 30.0)
  end
  begin
     id 16
     name head
     direction -0.00374772 0.999293 -0.037403  
     length 1.3568  
     axis 0 0 0   XYZ
    dof rx ry rz
    limits (-20.0 45.0)
           (-30.0 30.0)
           (-30.0 30.0)
  end
  begin
     id 17 
     name lclavicle
     direction 0.971773 0.191119 0.138311  
     length 2.84954  
     axis 0 0 0   XYZ
    dof ry rz
    limits (-20.0 10.0)
           (0.0 20.0)
  end
  begin
     id 18 
     name lhumerus
     direction 1 -4.4897e-011 -2.43761e-027   
     length 4.40919   
     axis 180 -30 -90   XYZ
    dof rx ry rz
    limits (-60.0 90.0)
           (-90.0 90.0)
           (-90.0 90.0)
  end
  begin
     id 19
     name lradius
     direction 1 -4.4896e-011 -9.1621e-027   
     length 3.03857   
     axis 180 -30 -90   XYZ
    dof rx
    limits (-10.0 170.0)
  end
  begin
     id 20
     name lwrist
     direction 1 -4.4896e-011 -1.41363e-026   
     length 1.51928   
     axis 1.07133e-014 90 90   XYZ
    dof ry
    limits (-180.0 0.0)
 end
  begin
     id 21 
     name lhand
     direction 1 -4.48978e-011 -2.82725e-026   
     length 0.523208   
     axis 1.80403e-014 90 90   XYZ
    dof rx rz
    limits (-90.0 90.0)
           (-45.0 45.0)
  end
  begin
     id 22 
     name lfingers
     direction 1 -4.48977e-011 -5.6545e-026   
     length 0.421824   
     axis 3.60806e-014 90 90   XYZ
    dof rx
    limits (0.0 90.0)
  end
  begin
     id 23
     name lthumb
     direction 0.707107 -6.34962e-011 0.707107   
     length 0.605657   
     axis -90 45 2.85299e-015   XYZ
    dof rx rz
    limits (-45.0 45.0)
           (-45.0 45.0)
  end
  begin
     id 24 
     name rclavicle
     direction -0.957247 0.24311 0.156766   
     length 3.12406  
     axis 0 0 0   XYZ 
    dof ry rz
    limits (-10.0 20.0)
           (-20.0 0.0)
  end
  begin
     id 25 
     name rhumerus
     direction -1 -4.48964e-011 -1.70632e-027  
     length 4.61969   
     axis 180 30 90   XYZ
    dof rx ry rz
    limits (-90.0 60.0)
           (-90.0 90.0)
           (-90.0 90.0)
  end
  begin
     id 26 
     name rradius
     direction -1 -4.48966e-011 -6.60395e-027   
     length 3.09382   
     axis 180 30 90   XYZ
    dof rx
    limits (-10.0 170.0)
  end
  begin
     id 27 
     name rwrist
     direction -1 -4.48963e-011 -1.41363e-026   
     length 1.54691   
     axis 1.07133e-014 -90 -90   XYZ
    dof ry
    limits (-180.0 0.0)
  end
  begin
     id 28
     name rhand
     direction -1 -4.49013e-011 -2.82725e-026   
     length 0.500896   
     axis 1.80403e-014 -90 -90   XYZ
    dof rx rz
    limits (-90.0 90.0)
           (-45.0 45.0)
  end
  begin
     id 29
     name rfingers
     direction -1 -4.48902e-011 -5.6545e-026   
     length 0.403835   
     axis 3.60806e-014 -90 -90   XYZ
    dof rx
    limits (0.0 90.0)
  end
  begin
     id 30
     name rthumb
     direction -0.707107 -6.34953e-011 0.707107   
     length 0.579829   
     axis -90 -45 -2.85299e-015   XYZ
    dof rx rz
    limits (-45.0 45.0)
           (-45.0 45.0)
  end
:hierarchy
  begin
    root lhipjoint rhipjoint lowerback
    lhipjoint lfemur
    lfemur ltibia
    ltibia lfoot
    lfoot ltoes
    rhipjoint rfemur
    rfemur rtibia
    rtibia rfoot
    rfoot rtoes
    lowerback upperback
    upperback thorax
    thorax lowerneck lclavicle rclavicle
    lowerneck upperneck
    upperneck head
    lclavicle lhumerus
    lhumerus lradius
    lradius lwrist
    lwrist lhand lthumb
    lhand lfingers
    rclavicle rhumerus
    rhumerus rradius
    rradius rwrist
    rwrist rhand rthumb
    rhand rfingers
  end

#!OML:ASF E:\madness\Project 1\Capture day 1\Session 1\Female1.ASF
:FULLY-SPECIFIED
:DEGREES
384
root 7.41914 16.4957 0.985784 16.4498 -86.1603 -8.45007
lowerback -6.02918 -1.10192 -4.58943
upperback -4.85813 -1.3921 1.63077
thorax -1.50201 -0.611726 4.19971
lowerneck 2.50639 -11.742 -8.08378
upperneck 13.2974 -16.7112 4.48675
head 4.66179 -8.56508 1.94079
rclavicle -7.01958e-015 -8.94531e-016
rhumerus -54.9676 -0.637419 -81.9152
rradius 52.618
rwrist 2.57106
rhand -12.1356 -45.372
rfingers 7.12502
rthumb 13.9264 -74.8856
lclavicle -7.01958e-015 -8.94531e-016
lhumerus -54.5723 10.0619 78.5586
lradius 63.6317
lwrist -5.41628
lhand -22.954 -11.7034
lfingers 7.12502
lthumb 3.48752 18.2478
rfemur -6.12423 17.2903 13.4539
rtibia 13.0865
rfoot -10.4577 -28.3389
rtoes 14.6734
lfemur -6.67957 -4.30058 -23.9248
ltibia 13.2587
lfoot -20.9415 39.978
ltoes 42.1902
385
root 7.41722 16.4982 0.96625 16.8355 -86.6467 -8.83802
lowerback -6.00234 -1.18811 -4.68781
upperback -4.87404 -1.50544 1.66547
thorax -1.51911 -0.665386 4.28644
lowerneck 2.38801 -11.7311 -8.03024
upperneck 13.4271 -16.6768 4.30281
head 4.69906 -8.55294 1.86989
rclavicle -9.57894e-015 1.98785e-015
rhumerus -54.7892 -0.480357 -81.9585
rradius 52.3773
rwrist 2.66481
rhand -11.7483 -45.3058
rfingers 7.12502
rthumb 14.2995 -74.7934
lclavicle -9.57894e-015 1.98785e-015
lhumerus -54.5759 10.1638 78.6253
lradius 63.376
lwrist -5.75823
lhand -23.4626 -11.235
lfingers 7.12502
lthumb 2.99632 18.7237
rfemur -6.19179 17.377 13.4116
rtibia 12.9902
rfoot -10.3728 -28.1805
rtoes 14.6673
lfemur -6.67356 -3.8569 -23.9734
ltibia 13.4015
lfoot -21.3443 39.9644
ltoes 42.354
386
root 7.41637 16.4961 0.944657 18.0873 -87.1653 -10.1359
lowerback -5.90242 -1.21734 -4.67524
upperback -4.90159 -1.55133 1.61339
thorax -1.59975 -0.687228 4.22528
lowerneck 2.37005 -11.7465 -8.02067
upperneck 13.6128 -16.717 4.28861
head 4.76 -8.57637 1.85408
rclavicle -2.10588e-015 1.22253e-014
rhumerus -54.7947 -0.49579 -82.0842
rradius 52.3477
rwrist 2.65672
rhand -12.233 -44.4872
rfingers 7.12502
rthumb 13.8324 -74.0073
lclavicle -2.10588e-015 1.22253e-014
lhumerus -54.5389 10.0774 78.5955
lradius 63.1103
lwrist -6.00021
lhand -23.7381 -11.3498
lfingers 7.12502
lthumb 2.73031 18.6125
rfemur -6.19794 17.4111 13.44
rtibia 12.9114
rfoot -10.2916 -27.9279
rtoes 14.1099
lfemur -6.65537 -3.60629 -23.9644
ltibia 13.5751
lfoot -21.774 40.1875
ltoes 42.6541
387
root 7.41418 16.4909 0.920417 21.0035 -87.6916 -13.1905
lowerback -5.71842 -1.22828 -4.67085
upperback -4.92988 -1.57584 1.56332
thorax -1.73009 -0.696466 4.17393
lowerneck 2.45854 -11.7545 -7.89165
upperneck 13.7184 -16.7439 4.21774
head 4.76322 -8.59287 1.81683
rclavicle -8.44214e-015 2.23633e-015
rhumerus -54.9322 -0.537272 -82.2152
rradius 52.4496
rwrist 2.56377
rhand -12.7482 -43.9455
rfingers 7.12502
rthumb 13.3359 -73.4988
lclavicle -8.44214e-015 2.23633e-015
lhumerus -54.5422 9.92839 78.511
lradius 62.8804
lwrist -5.99818
lhand -23.6855 -11.8044
lfingers 7.12502
lthumb 2.78108 18.1572
rfemur -6.12969 17.5102 13.5613
rtibia 12.8671
rfoot -10.2934 -27.6909
rtoes 13.508
lfemur -6.55275 -3.38148 -23.9057
ltibia 13.7681
lfoot -22.4882 40.226
ltoes 43.2097
388
root 7.41476 16.4872 0.897826 23.8589 -88.2068 -16.1211
lowerback -5.53801 -1.27351 -4.8089
upperback -4.9819 -1.64163 1.59279
thorax -1.87453 -0.72087 4.28463
lowerneck 2.31657 -11.7675 -7.75828
upperneck 13.9848 -16.738 3.91452
head 4.832 -8.59833 1.69216
rclavicle 3.27995e-015 8.15017e-015
rhumerus -54.9413 -0.433733 -82.2502
rradius 52.4606
rwrist 2.46488
rhand -12.8696 -44.6206
rfingers 7.12502
rthumb 13.2189 -74.1815
lclavicle 3.27995e-015 8.15017e-015
lhumerus -54.5612 9.95235 78.4924
lradius 62.6653
lwrist -5.99288
lhand -23.627 -12.0829
lfingers 7.12502
lthumb 2.83762 17.8779
rfemur -6.14732 17.6282 13.5737
rtibia 12.7672
rfoot -10.2434 -27.4662
rtoes 13.183
lfemur -6.54353 -3.12963 -23.9065
ltibia 13.9642
lfoot -22.9846 40.1319
ltoes 43.6258
389
root 7.41725 16.4874 0.877653 30.0723 -88.7577 -22.2674
lowerback -5.52088 -1.2591 -4.90458
upperback -5.03252 -1.6235 1.60935
thorax -1.93697 -0.707288 4.35812
lowerneck 2.37598 -11.7477 -7.88715
upperneck 13.9951 -16.741 4.06362
head 4.84897 -8.60198 1.75621
rclavicle 6.32384e-015 -3.97569e-015
rhumerus -54.927 -0.544436 -82.2049
rradius 52.5392
rwrist 2.53193
rhand -12.8708 -45.2631
rfingers 7.12502
rthumb 13.2177 -74.8241
lclavicle 6.32384e-015 -3.97569e-015
lhumerus -54.3274 9.94336 78.5262
lradius 62.2742
lwrist -5.94439
lhand -23.1711 -11.4795
lfingers 7.12502
lthumb 3.27783 18.4751
rfemur -6.32203 17.7028 13.5149
rtibia 12.6448
rfoot -10.1933 -27.146
rtoes 13.2092
lfemur -6.67618 -2.80036 -23.9257
ltibia 14.1276
lfoot -23.2007 40.192
ltoes 43.7338
390
root 7.41587 16.4899 0.857231 52.9613 -89.2503 -45.1535
lowerback -5.49137 -1.21602 -4.85025
upperback -5.0758 -1.57279 1.61922
thorax -2.00494 -0.681568 4.34135
lowerneck 2.73873 -11.6834 -8.12242
upperneck 13.7208 -16.711 4.41112
head 4.7518 -8.59094 1.9253
rclavicle 1.27595e-014 -4.47266e-016
rhumerus -54.963 -0.709536 -82.1395
rradius 52.6307
rwrist 2.67728
rhand -12.2835 -45.0378
rfingers 7.12502
rthumb 13.7838 -74.5612
lclavicle 1.27595e-014 -4.47266e-016
lhumerus -54.126 9.90827 78.5524
lradius 61.8738
lwrist -5.90311
lhand -22.6014 -10.2488
lfingers 7.12502
lthumb 3.82805 19.6966
rfemur -6.45567 17.8342 13.5779
rtibia 12.6003
rfoot -10.2745 -26.8314
rtoes 13.4701
lfemur -6.66034 -2.40116 -23.8597
ltibia 14.1621
lfoot -23.4909 40.3083
ltoes 43.7612
391
root 7.40961 16.4858 0.836798 103.035 -89.4481 -95.3478
lowerback -5.40255 -1.22683 -4.84665
upperback -5.0634 -1.59091 1.64487
thorax -2.03889 -0.689541 4.36707
lowerneck 2.69764 -11.699 -8.18742
upperneck 13.788 -16.7342 4.38112
head 4.78389 -8.60726 1.9185
rclavicle -1.61513e-014 4.57205e-015
rhumerus -54.9087 -0.590721 -82.1065
rradius 52.6888
rwrist 2.58219
rhand -11.5932 -44.9263
rfingers 7.12502
rthumb 14.449 -74.4033
lclavicle -1.61513e-014 4.57205e-015
lhumerus -54.2214 9.9117 78.6205
lradius 61.9031
lwrist -5.97347
lhand -22.4385 -9.51131
lfingers 7.12502
lthumb 3.98537 20.4312
rfemur -6.4861 17.9829 13.6442
rtibia 12.6852
rfoot -10.4715 -26.567
rtoes 13.8503
lfemur -6.45564 -2.1915 -23.8201
ltibia 14.0945
lfoot -23.8082 40.5299
ltoes 43.9848
392
root 7.40059 16.4746 0.815933 150.412 -89.2337 -142.813
lowerback -5.45839 -1.26073 -4.92797
upperback -4.96169 -1.62631 1.60143
thorax -1.89734 -0.710551 4.36317
lowerneck 2.29721 -11.7759 -7.96946
upperneck 14.0786 -16.8014 4.14106
head 4.90488 -8.63402 1.77702
rclavicle -5.5287e-016 -1.29707e-014
rhumerus -54.7413 -0.446341 -82.2064
rradius 52.7653
rwrist 2.44316
rhand -11.7306 -44.9736
rfingers 7.12502
rthumb 14.3166 -74.46
lclavicle -5.5287e-016 -1.29707e-014
lhumerus -54.2435 9.91167 78.6141
lradius 62.0432
lwrist -6.06503
lhand -22.3435 -9.43823
lfingers 7.12502
lthumb 4.07703 20.5025
rfemur -6.57138 18.0336 13.599
rtibia 12.8689
rfoot -10.5581 -26.2741
rtoes 13.5952
lfemur -6.27596 -2.09105 -23.8799
ltibia 13.9863
lfoot -23.9417 40.946
ltoes 44.1189
